  0
SECTION
  2
HEADER
  9
$ACADVER
  1
AC1014
  9
$HANDSEED
  5
FFFF
  9
$MEASUREMENT
 70
     1
  0
ENDSEC
  0
SECTION
  2
TABLES
  0
TABLE
  2
VPORT
  5
8
330
0
100
AcDbSymbolTable
 70
     4
  0
VPORT
  5
2E
330
8
100
AcDbSymbolTableRecord
100
AcDbViewportTableRecord
  2
*ACTIVE
 70
     0
 10
0.0
 20
0.0
 11
1.0
 21
1.0
 12
210.0
 22
148.5
 13
0.0
 23
0.0
 14
10.0
 24
10.0
 15
10.0
 25
10.0
 16
0.0
 26
0.0
 36
1.0
 17
0.0
 27
0.0
 37
0.0
 40
341.0
 41
1.24
 42
50.0
 43
0.0
 44
0.0
 50
0.0
 51
0.0
 71
     0
 72
   100
 73
     1
 74
     3
 75
     0
 76
     0
 77
     0
 78
     0
  0
ENDTAB
  0
TABLE
  2
LTYPE
  5
5
330
0
100
AcDbSymbolTable
 70
     1
  0
LTYPE
  5
14
330
5
100
AcDbSymbolTableRecord
100
AcDbLinetypeTableRecord
  2
BYBLOCK
 70
     0
  3

 72
    65
 73
     0
 40
0.0
  0
LTYPE
  5
15
330
5
100
AcDbSymbolTableRecord
100
AcDbLinetypeTableRecord
  2
BYLAYER
 70
     0
  3

 72
    65
 73
     0
 40
0.0
  0
LTYPE
  5
16
330
5
100
AcDbSymbolTableRecord
100
AcDbLinetypeTableRecord
  2
CONTINUOUS
 70
     0
  3
Solid line
 72
    65
 73
     0
 40
0.0
  0
ENDTAB
  0
TABLE
  2
LAYER
  5
2
100
AcDbSymbolTable
 70
1
  0
LAYER
  5
50
100
AcDbSymbolTableRecord
100
AcDbLayerTableRecord
  2
0
 70
0
  6
CONTINUOUS
  0
ENDTAB
  0
TABLE
  2
STYLE
  5
3
330
0
100
AcDbSymbolTable
 70
     1
  0
STYLE
  5
11
330
3
100
AcDbSymbolTableRecord
100
AcDbTextStyleTableRecord
  2
STANDARD
 70
     0
 40
0.0
 41
1.0
 50
0.0
 71
     0
 42
2.5
  3
txt
  4

  0
ENDTAB
  0
TABLE
  2
VIEW
  5
6
330
0
100
AcDbSymbolTable
 70
     0
  0
ENDTAB
  0
TABLE
  2
UCS
  5
7
330
0
100
AcDbSymbolTable
 70
     0
  0
ENDTAB
  0
TABLE
  2
APPID
  5
9
330
0
100
AcDbSymbolTable
 70
     2
  0
APPID
  5
12
330
9
100
AcDbSymbolTableRecord
100
AcDbRegAppTableRecord
  2
ACAD
 70
     0
  0
ENDTAB
  0
TABLE
  2
DIMSTYLE
  5
A
330
0
100
AcDbSymbolTable
 70
     1
  0
DIMSTYLE
105
27
330
A
100
AcDbSymbolTableRecord
100
AcDbDimStyleTableRecord
  2
ISO-25
 70
     0
  3

  4

  5

  6

  7

 40
1.0
 41
2.5
 42
0.625
 43
3.75
 44
1.25
 45
0.0
 46
0.0
 47
0.0
 48
0.0
140
2.5
141
2.5
142
0.0
143
0.03937007874016
144
1.0
145
0.0
146
1.0
147
0.625
 71
     0
 72
     0
 73
     0
 74
     0
 75
     0
 76
     0
 77
     1
 78
     8
170
     0
171
     3
172
     1
173
     0
174
     0
175
     0
176
     0
177
     0
178
     0
270
     2
271
     2
272
     2
273
     2
274
     3
340
11
275
     0
280
     0
281
     0
282
     0
283
     0
284
     8
285
     0
286
     0
287
     3
288
     0
  0
ENDTAB
  0
TABLE
  2
BLOCK_RECORD
  5
1
330
0
100
AcDbSymbolTable
 70
     1
  0
BLOCK_RECORD
  5
1F
330
1
100
AcDbSymbolTableRecord
100
AcDbBlockTableRecord
  2
*MODEL_SPACE
  0
BLOCK_RECORD
  5
1B
330
1
100
AcDbSymbolTableRecord
100
AcDbBlockTableRecord
  2
*PAPER_SPACE
  0
ENDTAB
  0
ENDSEC
  0
SECTION
  2
BLOCKS
  0
BLOCK
  5
20
330
1F
100
AcDbEntity
  8
0
100
AcDbBlockBegin
  2
*MODEL_SPACE
 70
     0
 10
0.0
 20
0.0
 30
0.0
  3
*MODEL_SPACE
  1

  0
ENDBLK
  5
21
330
1F
100
AcDbEntity
  8
0
100
AcDbBlockEnd
  0
BLOCK
  5
1C
330
1B
100
AcDbEntity
 67
     1
  8
0
100
AcDbBlockBegin
  2
*PAPER_SPACE
  1

  0
ENDBLK
  5
1D
330
1B
100
AcDbEntity
 67
     1
  8
0
100
AcDbBlockEnd
  0
ENDSEC
  0
SECTION
  2
ENTITIES
  0
SPLINE
  5
100
100
AcDbEntity
  8
0
 62
1
100
AcDbSpline
 70
8
 71
3
 72
8
 73
4
 74
0
 40
0
 40
0
 40
0
 40
0
 40
1
 40
1
 40
1
 40
1
 10
6.503601
 20
23.596397
 30
0.0
 10
6.503601
 20
23.739303
 30
0.0
 10
6.427362
 20
23.871354
 30
0.0
 10
6.303601
 20
23.942807
 30
0.0
  0
SPLINE
  5
101
100
AcDbEntity
  8
0
 62
1
100
AcDbSpline
 70
8
 71
3
 72
8
 73
4
 74
0
 40
0
 40
0
 40
0
 40
0
 40
1
 40
1
 40
1
 40
1
 10
6.303601
 20
23.942807
 30
0.0
 10
6.179841
 20
24.014260
 30
0.0
 10
6.027362
 20
24.014260
 30
0.0
 10
5.903601
 20
23.942807
 30
0.0
  0
SPLINE
  5
102
100
AcDbEntity
  8
0
 62
1
100
AcDbSpline
 70
8
 71
3
 72
8
 73
4
 74
0
 40
0
 40
0
 40
0
 40
0
 40
1
 40
1
 40
1
 40
1
 10
5.903601
 20
23.942807
 30
0.0
 10
5.779841
 20
23.871354
 30
0.0
 10
5.703601
 20
23.739303
 30
0.0
 10
5.703601
 20
23.596397
 30
0.0
  0
SPLINE
  5
103
100
AcDbEntity
  8
0
 62
1
100
AcDbSpline
 70
8
 71
3
 72
8
 73
4
 74
0
 40
0
 40
0
 40
0
 40
0
 40
1
 40
1
 40
1
 40
1
 10
5.703601
 20
23.596397
 30
0.0
 10
5.703601
 20
23.453491
 30
0.0
 10
5.779841
 20
23.321440
 30
0.0
 10
5.903601
 20
23.249987
 30
0.0
  0
SPLINE
  5
104
100
AcDbEntity
  8
0
 62
1
100
AcDbSpline
 70
8
 71
3
 72
8
 73
4
 74
0
 40
0
 40
0
 40
0
 40
0
 40
1
 40
1
 40
1
 40
1
 10
5.903601
 20
23.249987
 30
0.0
 10
6.027362
 20
23.178534
 30
0.0
 10
6.179841
 20
23.178534
 30
0.0
 10
6.303601
 20
23.249987
 30
0.0
  0
SPLINE
  5
105
100
AcDbEntity
  8
0
 62
1
100
AcDbSpline
 70
8
 71
3
 72
8
 73
4
 74
0
 40
0
 40
0
 40
0
 40
0
 40
1
 40
1
 40
1
 40
1
 10
6.303601
 20
23.249987
 30
0.0
 10
6.427362
 20
23.321440
 30
0.0
 10
6.503601
 20
23.453491
 30
0.0
 10
6.503601
 20
23.596397
 30
0.0
  0
LINE
  5
106
100
AcDbEntity
  8
0
 62
1
100
AcDbLine
 10
6.503601
 20
23.596397
 30
0.0
 11
6.503601
 21
23.596397
 31
0.0
  0
SPLINE
  5
107
100
AcDbEntity
  8
0
 62
1
100
AcDbSpline
 70
8
 71
3
 72
8
 73
4
 74
0
 40
0
 40
0
 40
0
 40
0
 40
1
 40
1
 40
1
 40
1
 10
11.878602
 20
23.596397
 30
0.0
 10
11.878602
 20
25.659606
 30
0.0
 10
10.777893
 20
27.566090
 30
0.0
 10
8.991102
 20
28.597694
 30
0.0
  0
SPLINE
  5
108
100
AcDbEntity
  8
0
 62
1
100
AcDbSpline
 70
8
 71
3
 72
8
 73
4
 74
0
 40
0
 40
0
 40
0
 40
0
 40
1
 40
1
 40
1
 40
1
 10
8.991102
 20
28.597694
 30
0.0
 10
7.204310
 20
29.629298
 30
0.0
 10
5.002893
 20
29.629298
 30
0.0
 10
3.216101
 20
28.597694
 30
0.0
  0
SPLINE
  5
109
100
AcDbEntity
  8
0
 62
1
100
AcDbSpline
 70
8
 71
3
 72
8
 73
4
 74
0
 40
0
 40
0
 40
0
 40
0
 40
1
 40
1
 40
1
 40
1
 10
3.216101
 20
28.597694
 30
0.0
 10
1.429310
 20
27.566090
 30
0.0
 10
0.328601
 20
25.659606
 30
0.0
 10
0.328601
 20
23.596397
 30
0.0
  0
SPLINE
  5
10a
100
AcDbEntity
  8
0
 62
1
100
AcDbSpline
 70
8
 71
3
 72
8
 73
4
 74
0
 40
0
 40
0
 40
0
 40
0
 40
1
 40
1
 40
1
 40
1
 10
0.328601
 20
23.596397
 30
0.0
 10
0.328601
 20
21.533188
 30
0.0
 10
1.429310
 20
19.626705
 30
0.0
 10
3.216101
 20
18.595100
 30
0.0
  0
SPLINE
  5
10b
100
AcDbEntity
  8
0
 62
1
100
AcDbSpline
 70
8
 71
3
 72
8
 73
4
 74
0
 40
0
 40
0
 40
0
 40
0
 40
1
 40
1
 40
1
 40
1
 10
3.216101
 20
18.595100
 30
0.0
 10
5.002893
 20
17.563496
 30
0.0
 10
7.204310
 20
17.563496
 30
0.0
 10
8.991102
 20
18.595100
 30
0.0
  0
SPLINE
  5
10c
100
AcDbEntity
  8
0
 62
1
100
AcDbSpline
 70
8
 71
3
 72
8
 73
4
 74
0
 40
0
 40
0
 40
0
 40
0
 40
1
 40
1
 40
1
 40
1
 10
8.991102
 20
18.595100
 30
0.0
 10
10.777893
 20
19.626705
 30
0.0
 10
11.878602
 20
21.533188
 30
0.0
 10
11.878602
 20
23.596397
 30
0.0
  0
LINE
  5
10d
100
AcDbEntity
  8
0
 62
1
100
AcDbLine
 10
11.878602
 20
23.596397
 30
0.0
 11
11.878602
 21
23.596397
 31
0.0
  0
SPLINE
  5
10e
100
AcDbEntity
  8
0
 62
1
100
AcDbSpline
 70
8
 71
3
 72
8
 73
4
 74
0
 40
0
 40
0
 40
0
 40
0
 40
1
 40
1
 40
1
 40
1
 10
6.256601
 20
22.045997
 30
0.0
 10
6.256601
 20
22.100659
 30
0.0
 10
6.227440
 20
22.151168
 30
0.0
 10
6.180101
 20
22.178499
 30
0.0
  0
SPLINE
  5
10f
100
AcDbEntity
  8
0
 62
1
100
AcDbSpline
 70
8
 71
3
 72
8
 73
4
 74
0
 40
0
 40
0
 40
0
 40
0
 40
1
 40
1
 40
1
 40
1
 10
6.180101
 20
22.178499
 30
0.0
 10
6.132763
 20
22.205830
 30
0.0
 10
6.074440
 20
22.205830
 30
0.0
 10
6.027101
 20
22.178499
 30
0.0
  0
SPLINE
  5
110
100
AcDbEntity
  8
0
 62
1
100
AcDbSpline
 70
8
 71
3
 72
8
 73
4
 74
0
 40
0
 40
0
 40
0
 40
0
 40
1
 40
1
 40
1
 40
1
 10
6.027101
 20
22.178499
 30
0.0
 10
5.979763
 20
22.151168
 30
0.0
 10
5.950601
 20
22.100659
 30
0.0
 10
5.950601
 20
22.045997
 30
0.0
  0
SPLINE
  5
111
100
AcDbEntity
  8
0
 62
1
100
AcDbSpline
 70
8
 71
3
 72
8
 73
4
 74
0
 40
0
 40
0
 40
0
 40
0
 40
1
 40
1
 40
1
 40
1
 10
5.950601
 20
22.045997
 30
0.0
 10
5.950601
 20
21.991335
 30
0.0
 10
5.979763
 20
21.940826
 30
0.0
 10
6.027101
 20
21.913495
 30
0.0
  0
SPLINE
  5
112
100
AcDbEntity
  8
0
 62
1
100
AcDbSpline
 70
8
 71
3
 72
8
 73
4
 74
0
 40
0
 40
0
 40
0
 40
0
 40
1
 40
1
 40
1
 40
1
 10
6.027101
 20
21.913495
 30
0.0
 10
6.074440
 20
21.886164
 30
0.0
 10
6.132763
 20
21.886164
 30
0.0
 10
6.180101
 20
21.913495
 30
0.0
  0
SPLINE
  5
113
100
AcDbEntity
  8
0
 62
1
100
AcDbSpline
 70
8
 71
3
 72
8
 73
4
 74
0
 40
0
 40
0
 40
0
 40
0
 40
1
 40
1
 40
1
 40
1
 10
6.180101
 20
21.913495
 30
0.0
 10
6.227440
 20
21.940826
 30
0.0
 10
6.256601
 20
21.991335
 30
0.0
 10
6.256601
 20
22.045997
 30
0.0
  0
LINE
  5
114
100
AcDbEntity
  8
0
 62
1
100
AcDbLine
 10
6.256601
 20
22.045997
 30
0.0
 11
6.256601
 21
22.045997
 31
0.0
  0
LINE
  5
115
100
AcDbEntity
  8
0
 62
1
100
AcDbLine
 10
2.864637
 20
18.968216
 30
0.0
 11
4.128095
 21
20.707216
 31
0.0
  0
LINE
  5
116
100
AcDbEntity
  8
0
 62
1
100
AcDbLine
 10
4.927378
 20
20.299961
 30
0.0
 11
4.263083
 21
18.255473
 31
0.0
  0
SPLINE
  5
117
100
AcDbEntity
  8
0
 62
1
100
AcDbSpline
 70
8
 71
3
 72
8
 73
4
 74
0
 40
0
 40
0
 40
0
 40
0
 40
1
 40
1
 40
1
 40
1
 10
2.864637
 20
18.968216
 30
0.0
 10
3.286746
 20
18.652652
 30
0.0
 10
3.759712
 20
18.411597
 30
0.0
 10
4.263083
 20
18.255473
 30
0.0
  0
SPLINE
  5
118
100
AcDbEntity
  8
0
 62
1
100
AcDbSpline
 70
8
 71
3
 72
8
 73
4
 74
0
 40
0
 40
0
 40
0
 40
0
 40
1
 40
1
 40
1
 40
1
 10
4.128095
 20
20.707216
 30
0.0
 10
4.375951
 20
20.537742
 30
0.0
 10
4.644584
 20
20.400867
 30
0.0
 10
4.927378
 20
20.299961
 30
0.0
  0
ENDSEC
  0
SECTION
  2
OBJECTS
  0
DICTIONARY
  5
C
330
0
100
AcDbDictionary
  3
ACAD_GROUP
350
D
  3
ACAD_MLINESTYLE
350
17
  0
DICTIONARY
  5
D
330
C
100
AcDbDictionary
  0
DICTIONARY
  5
1A
330
C
100
AcDbDictionary
  0
DICTIONARY
  5
17
330
C
100
AcDbDictionary
  3
STANDARD
350
18
  0
DICTIONARY
  5
19
330
C
100
AcDbDictionary
  0
ENDSEC
  0
EOF
